<svg width="39" height="41" viewBox="0 0 39 41" fill="none" xmlns="http://www.w3.org/2000/svg">
<path d="M30.8667 21.6099C31.2967 20.6599 31.5467 19.6499 31.5367 18.6199C31.4967 16.6999 30.9167 13.8699 28.2967 11.3699C26.0267 9.18992 22.9667 8.03992 19.8167 7.85992C16.3067 7.64992 11.2467 8.23992 7.43669 12.3199C2.07669 18.0499 4.74669 24.0999 6.59669 26.9599C8.96669 30.6199 9.75669 34.5999 8.69669 38.8299C8.51435 39.561 8.30419 40.2849 8.06669 40.9999H22.5667C22.5767 40.9699 22.5767 40.9499 22.5767 40.9099C22.3667 38.9299 23.7667 37.1599 25.7567 37.3099C26.9567 37.3999 27.7767 37.5199 28.7167 37.3199C30.1067 37.0299 29.9367 35.5699 29.7367 34.9099C29.5267 34.2499 29.8167 33.8399 29.8167 33.8399C30.3067 33.3999 30.4967 33.0799 30.5567 32.8899C30.5967 32.7699 30.5867 32.6499 30.5467 32.5399L30.2767 31.9299L30.9067 31.4999C30.9769 31.4448 31.0321 31.3728 31.067 31.2906C31.102 31.2084 31.1156 31.1188 31.1067 31.0299C30.9767 30.0199 31.0667 29.0099 31.0667 29.0099C31.0667 29.0099 31.9167 28.8699 32.6467 28.5399C33.5267 28.1299 31.6967 25.3499 30.8867 23.8699C30.4167 23.0299 30.6167 22.1899 30.8667 21.6099ZM26.6567 19.1499C26.8267 19.5699 26.7367 20.0399 26.1367 20.4599C25.4167 20.9599 23.4967 21.3099 21.9567 21.1699C22.4667 21.7599 22.6267 22.5799 21.7567 23.2799C21.2367 23.7099 20.1067 24.0599 18.9367 24.1599C17.3367 25.5699 17.3567 29.3899 17.3567 29.3899H15.9667C15.9567 28.9299 15.7367 26.8999 15.6067 26.2699C15.0967 26.8999 14.3367 27.3399 13.5567 27.2699C12.3067 27.1499 11.6567 25.9799 11.6567 24.7299V24.6999C11.3767 24.8899 11.0367 25.0099 10.6667 25.0099C9.69669 25.0099 8.91669 24.2199 8.91669 23.2499C8.91669 23.0599 8.94669 22.8699 9.01669 22.6899C7.32669 22.3299 6.97669 18.2499 8.85669 17.0699C8.59669 16.7499 8.48669 16.2999 8.59669 15.8399C8.74669 15.2599 9.21669 14.8199 9.72669 14.7099C9.67297 14.5584 9.65613 14.3962 9.67758 14.2368C9.69904 14.0775 9.75815 13.9255 9.85004 13.7935C9.94192 13.6616 10.0639 13.5534 10.2059 13.478C10.348 13.4026 10.5059 13.3621 10.6667 13.3599C10.7367 13.3599 10.8167 13.3699 10.8867 13.3899C10.9556 13.1432 11.0782 12.9148 11.2456 12.7209C11.413 12.5271 11.6212 12.3726 11.8552 12.2684C12.0892 12.1643 12.3434 12.1131 12.5995 12.1186C12.8556 12.124 13.1073 12.186 13.3367 12.2999C13.6067 11.6899 14.2167 11.2699 14.9367 11.2699C15.2067 11.2699 15.4567 11.3299 15.6767 11.4399C16.0767 11.0699 16.6167 10.8399 17.2067 10.8399C17.8067 10.8399 18.3567 11.0799 18.7667 11.4699C19.0867 11.2399 19.4867 11.0999 19.9267 11.0999C20.7167 11.0999 21.3867 11.5599 21.7267 12.2099C22.0067 12.0599 22.3367 11.9599 22.6767 11.9599C23.5967 11.9599 24.3567 12.5799 24.6067 13.4299C24.6867 13.3999 24.7767 13.3899 24.8667 13.3899C25.4067 13.3899 26.2767 13.7099 26.1767 14.6699C26.8167 15.0199 27.4467 15.6999 27.7567 16.6499C28.0667 17.5599 27.7967 19.1499 26.6567 19.1499Z" fill="white"/>
<path d="M17.7367 4.65C18.1767 4.65 18.5367 4.29 18.5367 3.85V0.8C18.5367 0.36 18.1767 0 17.7367 0C17.2967 0 16.9367 0.36 16.9367 0.8V3.86C16.9367 4.29 17.2967 4.65 17.7367 4.65ZM8.79667 6.46C8.84886 6.55096 8.91855 6.63069 9.00172 6.69457C9.08488 6.75845 9.17988 6.80522 9.28123 6.83218C9.38257 6.85915 9.48825 6.86577 9.59217 6.85166C9.69609 6.83755 9.79618 6.803 9.88667 6.75C10.0692 6.64346 10.2021 6.46903 10.2564 6.2648C10.3108 6.06058 10.2821 5.84315 10.1767 5.66L8.64667 3.01C8.59448 2.91904 8.52479 2.83931 8.44163 2.77543C8.35846 2.71155 8.26346 2.66478 8.16211 2.63782C8.06077 2.61086 7.95509 2.60423 7.85117 2.61834C7.74725 2.63245 7.64716 2.667 7.55667 2.72C7.37417 2.82654 7.24123 3.00097 7.1869 3.2052C7.13256 3.40942 7.16124 3.62685 7.26667 3.81L8.79667 6.46ZM3.84667 11.41L1.19667 9.88C1.10618 9.827 1.00609 9.79245 0.902171 9.77834C0.798254 9.76424 0.692573 9.77085 0.591228 9.79782C0.489884 9.82478 0.394884 9.87155 0.311716 9.93543C0.228548 9.99932 0.158858 10.079 0.106671 10.17C0.00124095 10.3532 -0.0274386 10.5706 0.0268963 10.7748C0.0812312 10.979 0.214166 11.1535 0.396671 11.26L3.04667 12.79C3.13716 12.843 3.23725 12.8776 3.34117 12.8917C3.44509 12.9058 3.55077 12.8991 3.65211 12.8722C3.75346 12.8452 3.84846 12.7984 3.93163 12.7346C4.01479 12.6707 4.08448 12.591 4.13667 12.5C4.35667 12.12 4.21667 11.63 3.84667 11.41ZM37.2967 19.56H34.2367C33.7967 19.56 33.4367 19.92 33.4367 20.36C33.4367 20.8 33.7967 21.16 34.2367 21.16H37.2967C37.7367 21.16 38.0967 20.8 38.0967 20.36C38.0943 20.1486 38.0093 19.9464 37.8598 19.7969C37.7102 19.6474 37.5081 19.5623 37.2967 19.56ZM32.0267 12.9C32.1667 12.9 32.3067 12.86 32.4267 12.79L35.0767 11.26C35.2278 11.1713 35.3456 11.0355 35.4121 10.8734C35.4785 10.7113 35.4899 10.5318 35.4445 10.3626C35.3991 10.1933 35.2993 10.0437 35.1606 9.93666C35.0219 9.82961 34.8519 9.77106 34.6767 9.77C34.5367 9.77 34.3967 9.81 34.2767 9.88L31.6267 11.41C31.4755 11.4987 31.3577 11.6345 31.2913 11.7966C31.2248 11.9587 31.2134 12.1382 31.2588 12.3074C31.3043 12.4767 31.404 12.6263 31.5427 12.7333C31.6814 12.8404 31.8515 12.8989 32.0267 12.9ZM25.5867 6.75C25.6772 6.803 25.7773 6.83755 25.8812 6.85166C25.9851 6.86577 26.0908 6.85915 26.1921 6.83218C26.2935 6.80522 26.3885 6.75845 26.4716 6.69457C26.5548 6.63069 26.6245 6.55096 26.6767 6.46L28.2067 3.81C28.2768 3.68859 28.3137 3.55089 28.3139 3.4107C28.314 3.27051 28.2773 3.13275 28.2074 3.01122C28.1375 2.88969 28.0369 2.78865 27.9157 2.71823C27.7945 2.64782 27.6569 2.61049 27.5167 2.61C27.2367 2.61 26.9667 2.76 26.8267 3.01L25.2967 5.66C25.1912 5.84315 25.1626 6.06058 25.2169 6.2648C25.2712 6.46903 25.4042 6.64346 25.5867 6.75Z" fill="white"/>
</svg>
