<svg width="36" height="36" viewBox="0 0 36 36" fill="none" xmlns="http://www.w3.org/2000/svg">
<path d="M31.5 7.5H29.25C29.0511 7.5 28.8603 7.57902 28.7197 7.71967C28.579 7.86032 28.5 8.05109 28.5 8.25V19.5C28.5 20.6935 28.0259 21.8381 27.182 22.682C26.3381 23.5259 25.1935 24 24 24H9.75C9.55109 24 9.36032 24.079 9.21967 24.2197C9.07902 24.3603 9 24.5511 9 24.75V25.5C9 26.2956 9.31607 27.0587 9.87868 27.6213C10.4413 28.1839 11.2044 28.5 12 28.5H27.435L33.21 34.275C33.3485 34.4163 33.5372 34.4972 33.735 34.5C33.8291 34.5186 33.9259 34.5186 34.02 34.5C34.1696 34.4427 34.297 34.3389 34.3834 34.2039C34.4697 34.069 34.5106 33.9099 34.5 33.75V10.5C34.5 9.70435 34.1839 8.94129 33.6213 8.37868C33.0587 7.81607 32.2956 7.5 31.5 7.5Z" fill="white"/>
<path fill-rule="evenodd" clip-rule="evenodd" d="M27 19.5V4.5C27 3.70435 26.6839 2.94129 26.1213 2.37868C25.5587 1.81607 24.7956 1.5 24 1.5H4.5C3.70435 1.5 2.94129 1.81607 2.37868 2.37868C1.81607 2.94129 1.5 3.70435 1.5 4.5V27.75C1.50074 27.8981 1.54529 28.0426 1.62804 28.1654C1.71079 28.2882 1.82804 28.3837 1.965 28.44C2.05909 28.4586 2.15591 28.4586 2.25 28.44C2.44783 28.4372 2.63653 28.3563 2.775 28.215L8.565 22.5H24C24.7956 22.5 25.5587 22.1839 26.1213 21.6213C26.6839 21.0587 27 20.2956 27 19.5ZM6.75 12.3748C6.75 12.9961 6.24632 13.4998 5.625 13.4998C5.00368 13.4998 4.5 12.9961 4.5 12.3748C4.5 11.7535 5.00368 11.2498 5.625 11.2498C6.24632 11.2498 6.75 11.7535 6.75 12.3748ZM11.25 13.4998C11.8713 13.4998 12.375 12.9961 12.375 12.3748C12.375 11.7535 11.8713 11.2498 11.25 11.2498C10.6287 11.2498 10.125 11.7535 10.125 12.3748C10.125 12.9961 10.6287 13.4998 11.25 13.4998ZM18 12.3748C18 12.9961 17.4963 13.4998 16.875 13.4998C16.2537 13.4998 15.75 12.9961 15.75 12.3748C15.75 11.7535 16.2537 11.2498 16.875 11.2498C17.4963 11.2498 18 11.7535 18 12.3748ZM22.5 13.4998C23.1213 13.4998 23.625 12.9961 23.625 12.3748C23.625 11.7535 23.1213 11.2498 22.5 11.2498C21.8787 11.2498 21.375 11.7535 21.375 12.3748C21.375 12.9961 21.8787 13.4998 22.5 13.4998Z" fill="white"/>
</svg>
