<svg width="65" height="65" viewBox="0 0 65 65" fill="none" xmlns="http://www.w3.org/2000/svg">
<rect width="65" height="65" rx="32.5" fill="#9600D1"/>
<path d="M45.5 26.5H43.25C43.0511 26.5 42.8603 26.579 42.7197 26.7197C42.579 26.8603 42.5 27.0511 42.5 27.25V38.5C42.5 39.6935 42.0259 40.8381 41.182 41.682C40.3381 42.5259 39.1935 43 38 43H23.75C23.5511 43 23.3603 43.079 23.2197 43.2197C23.079 43.3603 23 43.5511 23 43.75V44.5C23 45.2956 23.3161 46.0587 23.8787 46.6213C24.4413 47.1839 25.2044 47.5 26 47.5H41.435L47.21 53.275C47.3485 53.4163 47.5372 53.4972 47.735 53.5C47.8291 53.5186 47.9259 53.5186 48.02 53.5C48.1696 53.4427 48.297 53.3389 48.3834 53.2039C48.4697 53.069 48.5106 52.9099 48.5 52.75V29.5C48.5 28.7044 48.1839 27.9413 47.6213 27.3787C47.0587 26.8161 46.2956 26.5 45.5 26.5Z" fill="white"/>
<path fill-rule="evenodd" clip-rule="evenodd" d="M41 38.5V23.5C41 22.7044 40.6839 21.9413 40.1213 21.3787C39.5587 20.8161 38.7956 20.5 38 20.5H18.5C17.7044 20.5 16.9413 20.8161 16.3787 21.3787C15.8161 21.9413 15.5 22.7044 15.5 23.5V46.75C15.5007 46.8981 15.5453 47.0426 15.628 47.1654C15.7108 47.2882 15.828 47.3837 15.965 47.44C16.0591 47.4586 16.1559 47.4586 16.25 47.44C16.4478 47.4372 16.6365 47.3563 16.775 47.215L22.565 41.5H38C38.7956 41.5 39.5587 41.1839 40.1213 40.6213C40.6839 40.0587 41 39.2956 41 38.5ZM20.75 31.3748C20.75 31.9961 20.2463 32.4998 19.625 32.4998C19.0037 32.4998 18.5 31.9961 18.5 31.3748C18.5 30.7535 19.0037 30.2498 19.625 30.2498C20.2463 30.2498 20.75 30.7535 20.75 31.3748ZM25.25 32.4998C25.8713 32.4998 26.375 31.9961 26.375 31.3748C26.375 30.7535 25.8713 30.2498 25.25 30.2498C24.6287 30.2498 24.125 30.7535 24.125 31.3748C24.125 31.9961 24.6287 32.4998 25.25 32.4998ZM32 31.3748C32 31.9961 31.4963 32.4998 30.875 32.4998C30.2537 32.4998 29.75 31.9961 29.75 31.3748C29.75 30.7535 30.2537 30.2498 30.875 30.2498C31.4963 30.2498 32 30.7535 32 31.3748ZM36.5 32.4998C37.1213 32.4998 37.625 31.9961 37.625 31.3748C37.625 30.7535 37.1213 30.2498 36.5 30.2498C35.8787 30.2498 35.375 30.7535 35.375 31.3748C35.375 31.9961 35.8787 32.4998 36.5 32.4998Z" fill="white"/>
</svg>
