<svg width="50" height="50" viewBox="0 0 50 50" fill="none" xmlns="http://www.w3.org/2000/svg">
<path fill-rule="evenodd" clip-rule="evenodd" d="M16.3691 0H50V33.6309C50 42.6339 42.6339 50 33.6309 50H16.3691C7.36608 50 0 42.6339 0 33.6309V16.3691C0 7.36608 7.36608 0 16.3691 0Z" fill="url(#paint0_linear_360_302)"/>
<path fill-rule="evenodd" clip-rule="evenodd" d="M37.6984 39.1345C37.9808 38.8447 38.5075 38.318 38.8362 38.004C39.1648 37.6901 39.2954 37.5889 39.415 37.5294C39.5345 37.47 39.6431 37.4524 39.7267 37.4671C39.8104 37.4817 39.8691 37.5287 39.9101 37.5844C39.9512 37.6402 39.9747 37.7047 39.9967 37.8177C40.0187 37.9307 40.0392 38.092 40.0715 38.3209C40.1038 38.5498 40.1478 38.8462 40.1815 39.1059C40.2153 39.3656 40.2388 39.5885 40.2358 39.7397C40.2329 39.8908 40.2036 39.97 40.142 40.0566C40.0803 40.1431 39.9864 40.237 39.8998 40.3045C39.8133 40.372 39.7341 40.4131 39.6402 40.4321C39.5463 40.4512 39.4377 40.4483 39.3086 40.438C39.1795 40.4278 39.0298 40.4102 38.889 40.3896C38.7481 40.3691 38.6161 40.3456 38.4826 40.3236C38.3491 40.3016 38.2141 40.281 38.0601 40.2575C37.906 40.2341 37.7329 40.2077 37.6111 40.1828C37.4893 40.1578 37.4189 40.1343 37.3705 40.0947C37.3221 40.0551 37.2957 39.9994 37.2781 39.9407C37.2605 39.882 37.2517 39.8204 37.2634 39.7514C37.2751 39.6825 37.3074 39.6061 37.3426 39.5416C37.3778 39.4771 37.416 39.4242 37.6984 39.1345Z" fill="#FEFEFE"/>
<path fill-rule="evenodd" clip-rule="evenodd" d="M14.2664 10.3679C15.3125 9.40727 16.2253 9.29062 17.093 9.9564C30.8019 23.6653 37.7004 30.489 37.7004 30.489C38.573 31.294 39.0923 32.1362 39.2584 33.0155C39.3768 33.8199 39.4815 34.6063 39.5726 35.3745C39.5908 35.5279 39.5417 35.6235 39.4781 35.7631C39.2737 36.2117 38.8747 36.6749 38.2813 37.1527C36.9256 38.4731 36.2478 39.1333 36.2478 39.1333C35.8475 39.5835 34.8871 39.3628 34.1973 39.2238C32.6368 38.9093 32.4941 39.1618 31.2125 37.9537C17.5269 24.2682 10.6842 17.4255 10.6842 17.4255C10.0279 16.8366 9.70811 16.3847 9.72465 16.0697C9.7123 15.9097 9.71367 15.7598 9.72871 15.6202C9.78147 15.1302 10.1403 14.6061 10.4376 14.2158C10.6574 13.9274 10.9301 13.6277 11.2559 13.3167C12.0776 12.4658 13.0811 11.4828 14.2664 10.3679Z" fill="#FEFEFE"/>
<path fill-rule="evenodd" clip-rule="evenodd" d="M12.624 11.9915C12.57 12.093 12.5688 12.1918 12.5814 12.2881C12.5941 12.3844 12.6204 12.4783 12.6601 12.5722C12.6997 12.6661 12.7525 12.76 12.8259 12.8613C12.8992 12.9625 12.9931 13.071 13.3408 13.4276C13.6886 13.784 14.2901 14.3885 14.808 14.9123C15.3259 15.4361 15.7602 15.8792 16.2575 16.378C16.7549 16.8768 17.3154 17.4314 17.6308 17.7395C17.9462 18.0476 18.0166 18.1092 18.0504 18.1386C18.0841 18.1679 18.0812 18.165 18.6795 17.5594C19.2777 16.9538 20.4771 15.7456 21.0776 15.1422C21.678 14.5389 21.6795 14.5403 21.6773 14.5381C21.675 14.5359 21.6692 14.53 20.9148 13.7762C20.1605 13.0223 18.6576 11.5204 17.907 10.7702C17.1563 10.02 17.1577 10.0215 17.1172 9.98995C17.0767 9.95841 16.9941 9.89386 16.8979 9.83304C16.8017 9.77219 16.6918 9.71507 16.5769 9.66955C16.4619 9.62404 16.3418 9.5902 16.2128 9.57141C16.0839 9.55258 15.946 9.54882 15.8163 9.55993C15.6865 9.57104 15.5649 9.59702 15.4562 9.62933C15.3474 9.6616 15.2515 9.70023 15.1264 9.76614C15.0012 9.83201 14.8468 9.92524 14.7058 10.0236C14.5649 10.1218 14.4374 10.2253 14.3208 10.3266C14.2041 10.428 14.0984 10.5273 13.9628 10.6555C13.8273 10.7838 13.6619 10.941 13.4784 11.1168C13.2949 11.2927 13.0932 11.4871 12.939 11.6364C12.7847 11.7858 12.6779 11.89 12.624 11.9915Z" fill="url(#paint1_linear_360_302)"/>
<path fill-rule="evenodd" clip-rule="evenodd" d="M39.4781 35.7636C39.367 35.9919 39.2441 36.1863 39.1094 36.3468C38.3617 36.3003 37.7566 36.2453 37.2941 36.1816C36.4283 36.1412 35.4188 35.5602 34.2658 34.4387L19.7677 19.8963L16.4788 23.2205L15.7349 22.4767L22.6705 15.53L38.1557 30.9481C38.7143 31.5361 39.0818 32.2254 39.2584 33.0159C39.4574 34.5005 39.5569 35.2428 39.5569 35.2428C39.6012 35.4287 39.5749 35.6023 39.4781 35.7636Z" fill="url(#paint2_linear_360_302)"/>
<defs>
<linearGradient id="paint0_linear_360_302" x1="9.97772" y1="10.1419" x2="56.0341" y2="56.6208" gradientUnits="userSpaceOnUse">
<stop stop-color="#85E31C"/>
<stop offset="0.368627" stop-color="#2CC02B"/>
<stop offset="1" stop-color="#298822"/>
</linearGradient>
<linearGradient id="paint1_linear_360_302" x1="15.1113" y1="11.0158" x2="21.4652" y2="17.3227" gradientUnits="userSpaceOnUse">
<stop stop-color="#C6C6C6"/>
<stop offset="0.611765" stop-color="#E2E2E2"/>
<stop offset="1" stop-color="#FEFEFE"/>
</linearGradient>
<linearGradient id="paint2_linear_360_302" x1="23.0241" y1="18.4701" x2="38.3762" y2="34.949" gradientUnits="userSpaceOnUse">
<stop stop-color="#C6C6C6"/>
<stop offset="0.670588" stop-color="#E2E2E2"/>
<stop offset="1" stop-color="#FEFEFE"/>
</linearGradient>
</defs>
</svg>
