<svg width="31" height="50" viewBox="0 0 31 50" fill="none" xmlns="http://www.w3.org/2000/svg">
<path d="M30.1554 0H0L2.66077 44.7368L15.0777 50L27.4946 44.7368L30.1554 0Z" fill="#0277BD"/>
<path d="M14.7271 4.1665V45.8332L25.0467 41.6534L27.3502 4.1665H14.7271Z" fill="#039BE5"/>
<path d="M23.1425 10.4167H14.7271V15.6958H19.2585L18.981 20.9748H14.7271V26.2539H18.7961L18.5186 32.1928L14.7271 34.0404V39.5834L22.0328 36.152L22.6801 20.9748L23.1425 10.4167Z" fill="white"/>
<path d="M14.727 10.4167V15.6958H7.26443L7.01288 10.4167H14.727ZM10.87 20.9748L11.0377 26.2539H14.727V20.9748H10.87ZM11.2054 28.8934H7.85138L8.10292 36.152L14.727 39.5834V34.0404L11.2892 32.1928L11.2054 28.8934Z" fill="#EEEEEE"/>
</svg>
