<svg width="33" height="49" viewBox="0 0 33 49" fill="none" xmlns="http://www.w3.org/2000/svg">
<g clip-path="url(#clip0_360_236)">
<path d="M8.25165 49.0001C12.8047 49.0001 16.5 45.3414 16.5 40.8334V32.6667H8.25165C3.69856 32.6667 0.0032959 36.3254 0.0032959 40.8334C0.0032959 45.3414 3.69856 49.0001 8.25165 49.0001Z" fill="#0ACF83"/>
<path d="M0.0032959 24.4999C0.0032959 19.9919 3.69856 16.3333 8.25165 16.3333H16.5V32.6666H8.25165C3.69856 32.6666 0.0032959 29.0079 0.0032959 24.4999Z" fill="#A259FF"/>
<path d="M0.00341797 8.16667C0.00341797 3.65867 3.69868 0 8.25177 0H16.5001V16.3333H8.25177C3.69868 16.3333 0.00341797 12.6747 0.00341797 8.16667Z" fill="#F24E1E"/>
<path d="M16.5 0H24.7483C29.3014 0 32.9967 3.65867 32.9967 8.16667C32.9967 12.6747 29.3014 16.3333 24.7483 16.3333H16.5V0Z" fill="#FF7262"/>
<path d="M32.9967 24.4999C32.9967 29.0079 29.3014 32.6666 24.7483 32.6666C20.1953 32.6666 16.5 29.0079 16.5 24.4999C16.5 19.9919 20.1953 16.3333 24.7483 16.3333C29.3014 16.3333 32.9967 19.9919 32.9967 24.4999Z" fill="#1ABCFE"/>
</g>
<defs>
<clipPath id="clip0_360_236">
<rect width="33" height="49" fill="white"/>
</clipPath>
</defs>
</svg>
