<svg width="53" height="53" viewBox="0 0 53 53" fill="none" xmlns="http://www.w3.org/2000/svg">
<rect width="53" height="53" rx="10" fill="#000D96" fill-opacity="0.25"/>
<path d="M43.0428 25.523V24.0548H40.176L38.9161 24.0341C37.8394 24.0341 37.1031 24.7229 36.8135 25.5246V24.0564H33.6031V33.5816H36.8135V31.5391V28.3768C36.8135 27.4271 37.6054 26.6572 38.5823 26.6572H39.834V33.58H43.0444V31.5376V28.3752C43.0444 27.4255 43.8364 26.6556 44.8132 26.6556H46.407V24.0532L45.147 24.0325C44.0687 24.0325 43.3324 24.7229 43.0428 25.523ZM20.202 24.2536L18.479 29.7591L16.7576 24.2536H13.5472L17.0341 33.7789H17.2223H19.7373H19.9254L23.4107 24.2536H20.202ZM7.08555 24.2536V23.6189C7.08555 23.0622 7.54862 22.612 8.12132 22.612H10.147V20H7.36536C5.43946 20 3.87681 21.5176 3.87681 23.3914V24.2552H2V26.7797H3.87681V33.7789H7.08719V26.7797H10.1487V33.7789H13.359V26.7797V24.2552H10.1487H7.08555V24.2536ZM27.8614 24.1248H27.4703C24.8408 24.1248 22.7087 26.1975 22.7087 28.7538V29.2771C22.7087 31.8334 24.8408 33.9061 27.4703 33.9061H28.3392C30.1391 33.9061 31.6805 32.826 32.3137 31.2958L29.4829 30.4924C29.4829 30.4924 29.1442 31.4357 27.9628 31.4357C26.6293 31.4357 25.924 30.7263 25.8308 29.9214V29.9166C25.8242 29.8577 25.8209 29.7989 25.8209 29.74H29.442H32.6262V28.7554C32.623 26.1975 30.4909 24.1248 27.8614 24.1248ZM25.8226 27.9027C25.8619 27.0469 26.5867 26.3629 27.4769 26.3629H27.7828C28.673 26.3629 29.3978 27.0453 29.4371 27.9027H25.8226ZM49.0037 30.1186C47.9009 30.1186 47.0075 30.9872 47.0075 32.0593C47.0075 33.1315 47.9009 34 49.0037 34C50.1066 34 51 33.1315 51 32.0593C51 30.9872 50.1066 30.1186 49.0037 30.1186Z" fill="#000D96"/>
</svg>
