<svg width="55" height="55" viewBox="0 0 55 55" fill="none" xmlns="http://www.w3.org/2000/svg">
<path d="M18.8468 33.368C19.9332 34.3692 21.3313 35.1096 23.0021 35.5871C22.925 35.7165 22.8519 35.8475 22.7831 35.9793C22.299 36.0214 21.8324 36.0355 21.4734 36.0355C21.0079 36.0355 20.8671 35.998 20.8421 35.9895C20.8214 35.9739 20.7256 35.8902 20.4785 35.5611L20.476 35.5577C19.7128 34.5467 18.7652 33.6808 17.4863 33.3133L17.3609 33.2773L17.2312 33.2634C16.6534 33.2018 15.8178 33.3615 15.3243 34.0967C15.0536 34.5001 14.9485 35.0141 15.0827 35.526C15.2082 36.0049 15.5037 36.3421 15.7736 36.5574L15.8059 36.5832L15.8397 36.6072C16.1828 36.8512 16.4007 37.1849 16.6055 37.6888C16.6901 37.8969 16.7591 38.0979 16.8403 38.3346C16.8641 38.4041 16.889 38.4767 16.9157 38.5535C14.1905 35.7983 12.5 31.9848 12.5 27.7584C12.5 19.3099 19.2382 12.5 27.5 12.5C35.7618 12.5 42.5 19.3099 42.5 27.7584C42.5 33.6159 39.2508 38.682 34.5 41.2364V39.3677C34.5 38.2281 34.14 37.0022 33.5854 35.9577C33.5188 35.8323 33.448 35.7069 33.373 35.5823C35.0384 35.1042 36.4322 34.3642 37.5155 33.3646C39.1946 31.8153 39.9931 29.7648 39.9931 27.507C39.9931 25.7308 39.3503 24.0638 38.3066 22.6497C38.4538 22.0016 38.5824 21.2246 38.6168 20.4504C38.6417 19.891 38.6201 19.2796 38.4932 18.6952C38.3684 18.1199 38.1169 17.4589 37.595 16.9295L37.1544 16.4826H36.5269C34.2632 16.4826 32.6566 17.5437 31.7613 18.3498C30.6305 18.0452 29.4267 17.8792 28.1806 17.8792C26.9366 17.8792 25.7372 18.0452 24.6106 18.348C23.7158 17.5431 22.1101 16.4826 19.8481 16.4826H19.2194L18.7785 16.931C18.2591 17.4593 18.0083 18.1181 17.8834 18.6918C17.7566 19.2745 17.7344 19.8841 17.7584 20.442C17.7917 21.2142 17.9187 21.9891 18.0641 22.636C17.0132 24.0535 16.3654 25.7257 16.3654 27.507C16.3654 29.7665 17.1652 31.8185 18.8468 33.368ZM20.8377 35.9879C20.8378 35.9878 20.8387 35.9882 20.8402 35.9889C20.8384 35.9882 20.8377 35.9879 20.8377 35.9879ZM20.8434 35.9905C20.8454 35.9916 20.8465 35.9924 20.8465 35.9926C20.8466 35.9927 20.8456 35.9921 20.8434 35.9905ZM21.875 41.8862C21.8234 41.8649 21.7719 41.8434 21.7205 41.8215H21.7215H21.7253H21.7292H21.7331H21.737H21.7409H21.7448H21.7487H21.7526H21.7566H21.7605H21.7645H21.7685H21.7724H21.7764H21.7804H21.7845H21.7885H21.7925H21.7966H21.8006H21.8047H21.8087H21.8128H21.8169H21.821H21.8251H21.8292H21.8334H21.8375H21.8416H21.8458H21.85H21.8541H21.8583H21.8625H21.8667H21.8709H21.875V41.8862Z" fill="#505050" stroke="#505050" stroke-width="3"/>
<circle cx="27.5" cy="27.5" r="25.5" stroke="#505050" stroke-width="4"/>
</svg>
