<svg width="30" height="50" viewBox="0 0 30 50" fill="none" xmlns="http://www.w3.org/2000/svg">
<path d="M2.70086 44.9996L0 0H29.6644L26.9602 45.0032L14.825 50L2.70086 44.9996Z" fill="#E34E26"/>
<path d="M14.8322 3.67822V46.1777L24.645 42.1374L26.9569 3.67822H14.8322Z" fill="#EF662A"/>
<path d="M5.52603 9.19824L6.52758 25.8883H19.4062L18.974 33.047L14.8274 34.7122L10.6886 33.0494L10.4119 28.4529H6.68219L7.21552 37.3137L14.8265 40.4535L22.4471 37.3137L23.4688 20.3698H9.926L9.58596 14.7179H23.7942H23.8055L24.1384 9.19824H5.52603Z" fill="white"/>
<path d="M14.8322 9.19824H5.52603L6.52758 25.8883H14.8322V20.3698H9.926L9.58596 14.7179H14.8322V9.19824Z" fill="#EBEBEB"/>
<path d="M14.8322 34.7096L14.8274 34.712L10.6887 33.0492L10.4119 28.4526H6.68222L7.21555 37.3134L14.8266 40.4532L14.8322 40.4509V34.7096Z" fill="#EBEBEB"/>
</svg>
