<svg width="65" height="65" viewBox="0 0 65 65" fill="none" xmlns="http://www.w3.org/2000/svg">
<rect width="65" height="65" rx="32.5" fill="#DE0000"/>
<path d="M44.8667 33.6099C45.2967 32.6599 45.5467 31.6499 45.5367 30.6199C45.4967 28.6999 44.9167 25.8699 42.2967 23.3699C40.0267 21.1899 36.9667 20.0399 33.8167 19.8599C30.3067 19.6499 25.2467 20.2399 21.4367 24.3199C16.0767 30.0499 18.7467 36.0999 20.5967 38.9599C22.9667 42.6199 23.7567 46.5999 22.6967 50.8299C22.5143 51.561 22.3042 52.2849 22.0667 52.9999H36.5667C36.5767 52.9699 36.5767 52.9499 36.5767 52.9099C36.3667 50.9299 37.7667 49.1599 39.7567 49.3099C40.9567 49.3999 41.7767 49.5199 42.7167 49.3199C44.1067 49.0299 43.9367 47.5699 43.7367 46.9099C43.5267 46.2499 43.8167 45.8399 43.8167 45.8399C44.3067 45.3999 44.4967 45.0799 44.5567 44.8899C44.5967 44.7699 44.5867 44.6499 44.5467 44.5399L44.2767 43.9299L44.9067 43.4999C44.9769 43.4448 45.0321 43.3728 45.067 43.2906C45.102 43.2084 45.1156 43.1188 45.1067 43.0299C44.9767 42.0199 45.0667 41.0099 45.0667 41.0099C45.0667 41.0099 45.9167 40.8699 46.6467 40.5399C47.5267 40.1299 45.6967 37.3499 44.8867 35.8699C44.4167 35.0299 44.6167 34.1899 44.8667 33.6099ZM40.6567 31.1499C40.8267 31.5699 40.7367 32.0399 40.1367 32.4599C39.4167 32.9599 37.4967 33.3099 35.9567 33.1699C36.4667 33.7599 36.6267 34.5799 35.7567 35.2799C35.2367 35.7099 34.1067 36.0599 32.9367 36.1599C31.3367 37.5699 31.3567 41.3899 31.3567 41.3899H29.9667C29.9567 40.9299 29.7367 38.8999 29.6067 38.2699C29.0967 38.8999 28.3367 39.3399 27.5567 39.2699C26.3067 39.1499 25.6567 37.9799 25.6567 36.7299V36.6999C25.3767 36.8899 25.0367 37.0099 24.6667 37.0099C23.6967 37.0099 22.9167 36.2199 22.9167 35.2499C22.9167 35.0599 22.9467 34.8699 23.0167 34.6899C21.3267 34.3299 20.9767 30.2499 22.8567 29.0699C22.5967 28.7499 22.4867 28.2999 22.5967 27.8399C22.7467 27.2599 23.2167 26.8199 23.7267 26.7099C23.673 26.5584 23.6561 26.3962 23.6776 26.2368C23.699 26.0775 23.7582 25.9255 23.85 25.7935C23.9419 25.6616 24.0639 25.5534 24.2059 25.478C24.348 25.4026 24.5059 25.3621 24.6667 25.3599C24.7367 25.3599 24.8167 25.3699 24.8867 25.3899C24.9556 25.1432 25.0782 24.9148 25.2456 24.7209C25.413 24.5271 25.6212 24.3726 25.8552 24.2684C26.0892 24.1643 26.3434 24.1131 26.5995 24.1186C26.8556 24.124 27.1073 24.186 27.3367 24.2999C27.6067 23.6899 28.2167 23.2699 28.9367 23.2699C29.2067 23.2699 29.4567 23.3299 29.6767 23.4399C30.0767 23.0699 30.6167 22.8399 31.2067 22.8399C31.8067 22.8399 32.3567 23.0799 32.7667 23.4699C33.0867 23.2399 33.4867 23.0999 33.9267 23.0999C34.7167 23.0999 35.3867 23.5599 35.7267 24.2099C36.0067 24.0599 36.3367 23.9599 36.6767 23.9599C37.5967 23.9599 38.3567 24.5799 38.6067 25.4299C38.6867 25.3999 38.7767 25.3899 38.8667 25.3899C39.4067 25.3899 40.2767 25.7099 40.1767 26.6699C40.8167 27.0199 41.4467 27.6999 41.7567 28.6499C42.0667 29.5599 41.7967 31.1499 40.6567 31.1499Z" fill="white"/>
<path d="M31.7367 16.65C32.1767 16.65 32.5367 16.29 32.5367 15.85V12.8C32.5367 12.36 32.1767 12 31.7367 12C31.2967 12 30.9367 12.36 30.9367 12.8V15.86C30.9367 16.29 31.2967 16.65 31.7367 16.65ZM22.7967 18.46C22.8489 18.551 22.9185 18.6307 23.0017 18.6946C23.0849 18.7584 23.1799 18.8052 23.2812 18.8322C23.3826 18.8591 23.4883 18.8658 23.5922 18.8517C23.6961 18.8376 23.7962 18.803 23.8867 18.75C24.0692 18.6435 24.2021 18.469 24.2564 18.2648C24.3108 18.0606 24.2821 17.8432 24.1767 17.66L22.6467 15.01C22.5945 14.919 22.5248 14.8393 22.4416 14.7754C22.3585 14.7116 22.2635 14.6648 22.1621 14.6378C22.0608 14.6109 21.9551 14.6042 21.8512 14.6183C21.7473 14.6324 21.6472 14.667 21.5567 14.72C21.3742 14.8265 21.2412 15.001 21.1869 15.2052C21.1326 15.4094 21.1612 15.6268 21.2667 15.81L22.7967 18.46ZM17.8467 23.41L15.1967 21.88C15.1062 21.827 15.0061 21.7924 14.9022 21.7783C14.7983 21.7642 14.6926 21.7709 14.5912 21.7978C14.4899 21.8248 14.3949 21.8716 14.3117 21.9354C14.2285 21.9993 14.1589 22.079 14.1067 22.17C14.0012 22.3532 13.9726 22.5706 14.0269 22.7748C14.0812 22.979 14.2142 23.1535 14.3967 23.26L17.0467 24.79C17.1372 24.843 17.2373 24.8776 17.3412 24.8917C17.4451 24.9058 17.5508 24.8991 17.6521 24.8722C17.7535 24.8452 17.8485 24.7984 17.9316 24.7346C18.0148 24.6707 18.0845 24.591 18.1367 24.5C18.3567 24.12 18.2167 23.63 17.8467 23.41ZM51.2967 31.56H48.2367C47.7967 31.56 47.4367 31.92 47.4367 32.36C47.4367 32.8 47.7967 33.16 48.2367 33.16H51.2967C51.7367 33.16 52.0967 32.8 52.0967 32.36C52.0943 32.1486 52.0093 31.9464 51.8598 31.7969C51.7102 31.6474 51.5081 31.5623 51.2967 31.56ZM46.0267 24.9C46.1667 24.9 46.3067 24.86 46.4267 24.79L49.0767 23.26C49.2278 23.1713 49.3456 23.0355 49.4121 22.8734C49.4785 22.7113 49.4899 22.5318 49.4445 22.3626C49.3991 22.1933 49.2993 22.0437 49.1606 21.9367C49.0219 21.8296 48.8519 21.7711 48.6767 21.77C48.5367 21.77 48.3967 21.81 48.2767 21.88L45.6267 23.41C45.4755 23.4987 45.3577 23.6345 45.2913 23.7966C45.2248 23.9587 45.2134 24.1382 45.2588 24.3074C45.3043 24.4767 45.404 24.6263 45.5427 24.7333C45.6814 24.8404 45.8515 24.8989 46.0267 24.9ZM39.5867 18.75C39.6772 18.803 39.7773 18.8376 39.8812 18.8517C39.9851 18.8658 40.0908 18.8591 40.1921 18.8322C40.2935 18.8052 40.3885 18.7584 40.4716 18.6946C40.5548 18.6307 40.6245 18.551 40.6767 18.46L42.2067 15.81C42.2768 15.6886 42.3137 15.5509 42.3139 15.4107C42.314 15.2705 42.2773 15.1328 42.2074 15.0112C42.1375 14.8897 42.0369 14.7887 41.9157 14.7182C41.7945 14.6478 41.6569 14.6105 41.5167 14.61C41.2367 14.61 40.9667 14.76 40.8267 15.01L39.2967 17.66C39.1912 17.8432 39.1626 18.0606 39.2169 18.2648C39.2712 18.469 39.4042 18.6435 39.5867 18.75Z" fill="white"/>
</svg>
