<svg width="50" height="50" viewBox="0 0 50 50" fill="none" xmlns="http://www.w3.org/2000/svg">
<path d="M8.85417 0H41.1458C46.0417 0 50 4.05983 50 9.0812V40.9188C50 45.9402 46.0417 50 41.1458 50H8.85417C3.95833 50 0 45.9402 0 40.9188V9.0812C0 4.05983 3.95833 0 8.85417 0Z" fill="#330000"/>
<path d="M24.2291 30.0002H16.4791L14.8958 35.0215C14.8541 35.2138 14.6875 35.3421 14.5 35.3207H10.5833C10.3541 35.3207 10.2916 35.1925 10.3541 34.9361L17.0625 15.1284C17.125 14.9147 17.1875 14.6797 17.2708 14.4232C17.3541 13.9745 17.3958 13.5044 17.3958 13.0344C17.375 12.9275 17.4583 12.8207 17.5625 12.7993C17.5833 12.7993 17.6041 12.7993 17.625 12.7993H22.9583C23.125 12.7993 23.2083 12.8634 23.2291 12.9703L30.8333 34.9788C30.8958 35.2138 30.8333 35.3207 30.625 35.3207H26.2708C26.125 35.3421 25.9791 35.2352 25.9375 35.0856L24.2291 30.0002ZM17.6875 25.6626H22.9791C22.8541 25.2138 22.6875 24.6797 22.5 24.1241C22.3125 23.5472 22.125 22.9275 21.9375 22.2865C21.7291 21.6241 21.5416 20.9831 21.3333 20.3207C21.125 19.6583 20.9375 19.0386 20.7708 18.419C20.6041 17.8207 20.4583 17.2651 20.3125 16.7523H20.2708C20.0833 17.6711 19.8541 18.5899 19.5625 19.5087C19.25 20.5344 18.9375 21.6027 18.6041 22.6711C18.3125 23.7609 18 24.7651 17.6875 25.6626Z" fill="#FF9A00"/>
<path d="M35.375 16.4531C34.6875 16.4745 34.0208 16.1967 33.5208 15.7052C33.0416 15.171 32.7917 14.4659 32.8125 13.7394C32.7917 13.0129 33.0625 12.3292 33.5625 11.8377C34.0625 11.3463 34.7292 11.0898 35.4167 11.0898C36.2292 11.0898 36.8542 11.3463 37.3125 11.8377C37.7708 12.3505 38.0208 13.0343 38 13.7394C38.0208 14.4659 37.7708 15.171 37.2708 15.7052C36.7916 16.218 36.0833 16.4958 35.375 16.4531ZM33.0417 35.0001V18.5471C33.0417 18.3334 33.125 18.248 33.3125 18.248H37.4375C37.625 18.248 37.7083 18.3548 37.7083 18.5471V35.0001C37.7083 35.2351 37.625 35.342 37.4375 35.342H33.3542C33.1458 35.342 33.0417 35.2138 33.0417 35.0001Z" fill="#FF9A00"/>
</svg>
