<svg width="50" height="50" viewBox="0 0 50 50" fill="none" xmlns="http://www.w3.org/2000/svg">
<path d="M8.85417 0H41.1458C46.0417 0 50 4.05983 50 9.0812V40.9188C50 45.9402 46.0417 50 41.1458 50H8.85417C3.95833 50 0 45.9402 0 40.9188V9.0812C0 4.05983 3.95833 0 8.85417 0Z" fill="#49021F"/>
<path d="M17.8781 14.169V36.6128C17.8781 36.8534 17.7688 36.9628 17.5719 36.9628H13.2844C13.0875 36.9628 13 36.8534 13 36.6128V14.169C13 13.9722 13.1094 13.8847 13.3063 13.8847H17.5719C17.7031 13.8628 17.8344 13.9503 17.8562 14.1034C17.8781 14.1253 17.8781 14.1472 17.8781 14.169Z" fill="#FF3366"/>
<path d="M30.4781 37.3128C28.8594 37.3346 27.2406 37.0065 25.775 36.3284C24.3969 35.694 23.2594 34.644 22.4719 33.3534C21.6625 32.019 21.2688 30.3565 21.2688 28.3659C21.2469 26.7472 21.6625 25.1503 22.4719 23.7503C23.3031 22.3284 24.5063 21.1471 25.95 20.3596C27.4813 19.5065 29.3188 19.0909 31.4844 19.0909C31.5938 19.0909 31.7469 19.0909 31.9438 19.1128C32.1406 19.1346 32.3594 19.1346 32.6219 19.1565V12.244C32.6219 12.0909 32.6875 12.0034 32.8406 12.0034H37.2813C37.3906 11.9815 37.4781 12.069 37.5 12.1565C37.5 12.1784 37.5 12.2003 37.5 12.2003V33.0253C37.5 33.419 37.5219 33.8565 37.5438 34.3378C37.5875 34.7971 37.6094 35.2346 37.6313 35.6065C37.6313 35.7596 37.5656 35.8909 37.4125 35.9565C36.275 36.4378 35.0719 36.7878 33.8469 37.0065C32.7531 37.2034 31.6156 37.3128 30.4781 37.3128ZM32.6219 32.9378V23.3128C32.425 23.269 32.2281 23.2253 32.0313 23.2034C31.7906 23.1815 31.55 23.1596 31.3094 23.1596C30.4563 23.1596 29.6031 23.3346 28.8375 23.7284C28.0938 24.1003 27.4594 24.6472 26.9781 25.3471C26.4969 26.0471 26.2563 26.9878 26.2563 28.1253C26.2344 28.8909 26.3656 29.6565 26.6281 30.3784C26.8469 30.969 27.175 31.494 27.6125 31.9315C28.0281 32.3253 28.5313 32.6315 29.1 32.8065C29.6906 33.0034 30.3031 33.0909 30.9156 33.0909C31.2438 33.0909 31.55 33.069 31.8344 33.0471C32.1188 33.069 32.3813 33.0253 32.6219 32.9378Z" fill="#FF3366"/>
</svg>
