<svg width="55" height="55" viewBox="0 0 55 55" fill="none" xmlns="http://www.w3.org/2000/svg">
<path d="M12.5 27.5C12.5 19.2306 19.2306 12.5 27.5 12.5C35.7694 12.5 42.5 19.2306 42.5 27.5C42.5 35.7694 35.7694 42.5 27.5 42.5C19.2306 42.5 12.5 35.7694 12.5 27.5ZM31.7291 14.5769H23.2684C18.4744 14.5769 14.5769 18.4766 14.5769 23.2709V31.7316C14.5769 36.5256 18.4766 40.4231 23.2709 40.4231H31.7316C36.5256 40.4231 40.4231 36.5234 40.4231 31.7291V23.2684C40.4231 18.4744 36.5234 14.5769 31.7291 14.5769ZM20.1154 23.2709C20.1154 21.5322 21.5325 20.1154 23.2684 20.1154H24.8463C22.6504 20.9064 20.9064 22.6504 20.1154 24.8463V23.2709ZM31.2779 20.6241C30.9193 20.4264 30.5436 20.2559 30.1537 20.1154H31.5873C31.4638 20.2701 31.3595 20.4409 31.2779 20.6241ZM34.3759 23.7221C34.5591 23.6405 34.7299 23.5362 34.8846 23.4127V24.8463C34.7441 24.4564 34.5736 24.0807 34.3759 23.7221ZM30.1537 34.8846C32.3496 34.0936 34.0936 32.3496 34.8846 30.1537V31.7291C34.8846 33.4678 33.4675 34.8846 31.7316 34.8846H30.1537ZM20.1154 30.1537C20.9065 32.3496 22.6504 34.0936 24.8463 34.8846H23.2709C21.5322 34.8846 20.1154 33.4675 20.1154 31.7316V30.1537ZM25.8682 25.8682C26.301 25.4354 26.888 25.1923 27.5 25.1923C28.112 25.1923 28.699 25.4354 29.1318 25.8682C29.5646 26.301 29.8077 26.888 29.8077 27.5C29.8077 28.112 29.5646 28.699 29.1318 29.1318C28.699 29.5646 28.112 29.8077 27.5 29.8077C26.888 29.8077 26.301 29.5646 25.8682 29.1318C25.4354 28.699 25.1923 28.112 25.1923 27.5C25.1923 26.888 25.4354 26.301 25.8682 25.8682Z" fill="#505050" stroke="#505050" stroke-width="3"/>
<circle cx="27.5" cy="27.5" r="25.5" stroke="#505050" stroke-width="4"/>
</svg>
