<svg width="50" height="50" viewBox="0 0 50 50" fill="none" xmlns="http://www.w3.org/2000/svg">
<g clip-path="url(#clip0_360_227)">
<path d="M0 0H50V50H0V0Z" fill="#F7DF1E"/>
<path d="M13.1468 41.7836L16.9732 39.468C17.7113 40.7768 18.3828 41.8842 19.9936 41.8842C21.5375 41.8842 22.5109 41.2802 22.5109 38.931V22.9548H27.2097V38.9975C27.2097 43.8641 24.357 46.0793 20.195 46.0793C16.4362 46.0793 14.2543 44.1325 13.1467 41.7832" fill="black"/>
<path d="M29.7619 41.2802L33.5878 39.0651C34.5949 40.7099 35.9039 41.918 38.2196 41.918C40.1665 41.918 41.408 40.9446 41.408 39.6021C41.408 37.991 40.1327 37.4204 37.9846 36.481L36.8102 35.9772C33.4202 34.5342 31.1713 32.7218 31.1713 28.8956C31.1713 25.3714 33.8563 22.6863 38.0519 22.6863C41.039 22.6863 43.1871 23.7268 44.7308 26.4455L41.0724 28.7948C40.2668 27.3517 39.3944 26.7812 38.052 26.7812C36.6759 26.7812 35.8032 27.6538 35.8032 28.7948C35.8032 30.2045 36.6759 30.7752 38.6894 31.6479L39.864 32.1513C43.8581 33.8631 46.1069 35.6082 46.1069 39.5349C46.1069 43.7641 42.7842 46.0798 38.3204 46.0798C33.9572 46.0798 31.1378 43.999 29.7619 41.2802Z" fill="black"/>
</g>
<defs>
<clipPath id="clip0_360_227">
<rect width="50" height="50" fill="white"/>
</clipPath>
</defs>
</svg>
