<svg width="43" height="50" viewBox="0 0 43 50" fill="none" xmlns="http://www.w3.org/2000/svg">
<g clip-path="url(#clip0_360_267)">
<path d="M13.8204 38.6521C13.8204 38.6521 11.6109 39.7613 15.3929 40.1366C19.9747 40.5878 22.3164 40.5231 27.3656 39.6982C27.3656 39.6982 28.6931 40.4167 30.547 41.039C19.228 45.2264 4.92997 40.7964 13.8204 38.6521Z" fill="#5382A1"/>
<path d="M12.4373 33.1877C12.4373 33.1877 9.95906 34.7712 13.7439 35.1092C18.6383 35.545 22.5036 35.5807 29.1919 34.469C29.1919 34.469 30.117 35.2785 31.5717 35.7212C17.8864 39.1756 2.64343 35.9937 12.4373 33.1877Z" fill="#5382A1"/>
<path d="M24.0974 23.9184C26.8864 26.6902 23.3646 29.1844 23.3646 29.1844C23.3646 29.1844 30.4463 26.0287 27.194 22.0771C24.1565 18.3919 21.8271 16.5609 34.4375 10.2478C34.4375 10.2478 14.6433 14.5152 24.0974 23.9184Z" fill="#E76F00"/>
<path d="M39.0676 42.6939C39.0676 42.6939 40.7028 43.8568 37.2669 44.7565C30.7334 46.465 10.0739 46.9809 4.33481 44.8246C2.27174 44.0499 6.14057 42.9747 7.35756 42.7492C8.62675 42.5116 9.35205 42.5558 9.35205 42.5558C7.05772 41.1607 -5.47761 45.2953 2.98473 46.4794C26.0628 49.71 45.0538 45.0246 39.0676 42.6939Z" fill="#5382A1"/>
<path d="M14.883 27.5259C14.883 27.5259 4.37423 29.6805 11.1616 30.4629C14.0274 30.7941 19.7403 30.7192 25.0618 30.3343C29.4108 30.0176 33.7777 29.3443 33.7777 29.3443C33.7777 29.3443 32.2442 29.9112 31.1347 30.5651C20.4633 32.9878 -0.15195 31.8607 5.78291 29.3827C10.802 27.2884 14.883 27.5259 14.883 27.5259Z" fill="#5382A1"/>
<path d="M33.7343 36.6219C44.5823 31.756 39.5666 27.0799 36.0658 27.7099C35.2077 27.8641 34.8251 27.9976 34.8251 27.9976C34.8251 27.9976 35.1436 27.5669 35.752 27.3804C42.6779 25.2786 48.0043 33.5795 33.5163 36.8671C33.5163 36.8671 33.6841 36.7377 33.7343 36.6219Z" fill="#5382A1"/>
<path d="M27.194 0.0537109C27.194 0.0537109 33.2018 5.24138 21.4959 13.2185C12.1089 19.6176 19.3554 23.2662 21.492 27.4348C16.0127 23.1674 11.9916 19.4108 14.6892 15.9145C18.6488 10.7823 29.618 8.29401 27.194 0.0537109Z" fill="#E76F00"/>
<path d="M15.9489 49.8071C26.3617 50.3824 42.3516 49.4879 42.7303 45.2349C42.7303 45.2349 42.0023 46.8471 34.1247 48.1275C25.2372 49.5713 14.2758 49.4027 7.77444 48.4774C7.77444 48.4774 9.10535 49.4283 15.9489 49.8071Z" fill="#5382A1"/>
</g>
<defs>
<clipPath id="clip0_360_267">
<rect width="42.8571" height="50" fill="white"/>
</clipPath>
</defs>
</svg>
