<svg width="55" height="55" viewBox="0 0 55 55" fill="none" xmlns="http://www.w3.org/2000/svg">
<circle cx="27.5" cy="27.5" r="25.5" stroke="#505050" stroke-width="4"/>
<path fill-rule="evenodd" clip-rule="evenodd" d="M27.5 44C36.6127 44 44 36.6127 44 27.5C44 18.3873 36.6127 11 27.5 11C18.3873 11 11 18.3873 11 27.5C11 36.6127 18.3873 44 27.5 44ZM19.1009 24.0909V35H22.5739V24.0909H19.1009ZM19.5838 22.3366C19.9342 22.6586 20.3532 22.8196 20.8409 22.8196C21.3333 22.8196 21.7524 22.6586 22.098 22.3366C22.4484 22.0099 22.6236 21.617 22.6236 21.1577C22.6236 20.7031 22.4484 20.3149 22.098 19.9929C21.7524 19.6662 21.3333 19.5028 20.8409 19.5028C20.3532 19.5028 19.9342 19.6662 19.5838 19.9929C19.2334 20.3149 19.0582 20.7031 19.0582 21.1577C19.0582 21.617 19.2334 22.0099 19.5838 22.3366ZM28.2575 35V28.7784C28.2622 28.3617 28.3379 28.0066 28.4847 27.7131C28.6362 27.4195 28.8493 27.1946 29.1239 27.0384C29.4033 26.8774 29.7253 26.7969 30.0898 26.7969C30.6391 26.7969 31.0676 26.9673 31.3754 27.3082C31.6879 27.6491 31.8417 28.1226 31.837 28.7287V35H35.31V28.0469C35.3147 27.2277 35.1585 26.5128 34.8413 25.902C34.5288 25.2865 34.0884 24.8082 33.5202 24.4673C32.9568 24.1217 32.2915 23.9489 31.5245 23.9489C30.7196 23.9489 30.0259 24.1406 29.4435 24.5241C28.8612 24.9029 28.4492 25.4261 28.2077 26.0938H28.087V24.0909H24.7844V35H28.2575Z" fill="#505050"/>
</svg>
