<svg width="50" height="50" viewBox="0 0 50 50" fill="none" xmlns="http://www.w3.org/2000/svg">
<g clip-path="url(#clip0_360_295)">
<path d="M46.025 37.932C43.3066 37.8642 41.1998 38.1362 39.4327 38.8836C38.923 39.0874 38.1074 39.0876 38.0394 39.7331C38.3114 40.0051 38.3453 40.4468 38.5832 40.8205C38.9912 41.4999 39.7045 42.4176 40.3502 42.8935C41.0637 43.4371 41.7775 43.9807 42.5249 44.4565C43.8502 45.2721 45.3454 45.7477 46.6366 46.5633C47.3845 47.0387 48.1316 47.6507 48.8793 48.1604C49.2532 48.432 49.4909 48.8739 49.9667 49.0438V48.9419C49.7288 48.636 49.6608 48.1943 49.4231 47.8545C49.0835 47.5147 48.7435 47.2088 48.4037 46.869C47.4182 45.5439 46.1949 44.3885 44.8696 43.4371C43.7824 42.6894 41.4036 41.67 40.9618 40.4127C40.9618 40.4127 40.9277 40.3788 40.8938 40.3449C41.6415 40.2769 42.5249 40.0051 43.2386 39.8011C44.394 39.4952 45.4473 39.5632 46.6366 39.2575C47.1802 39.1215 47.7241 38.9516 48.2677 38.7817V38.476C47.6563 37.8642 47.2144 37.0488 46.5686 36.4711C44.8357 34.9756 42.9327 33.5147 40.9618 32.2915C39.9083 31.6119 38.5491 31.17 37.4278 30.5925C37.0202 30.3882 36.3404 30.2865 36.1027 29.9467C35.4909 29.1991 35.1511 28.2138 34.7094 27.3302C33.7243 25.4611 32.7724 23.3885 31.9229 21.4177C31.3115 20.0924 30.9376 18.767 30.19 17.5439C26.6901 11.7672 22.8842 8.26721 17.0395 4.83505C15.7822 4.12154 14.2872 3.81564 12.69 3.44194C11.8407 3.40783 10.991 3.34004 10.1415 3.30593C9.59788 3.06802 9.05407 2.42252 8.57825 2.11661C6.64175 0.893183 1.64635 -1.75705 0.219131 1.74291C-0.698386 3.95165 1.57835 6.12627 2.35985 7.24779C2.93778 8.0293 3.68518 8.91271 4.09299 9.79634C4.3309 10.3736 4.39868 10.9857 4.63659 11.5973C5.18041 13.0921 5.6899 14.7574 6.40362 16.1507C6.77754 16.8642 7.18513 17.6119 7.66094 18.2574C7.93274 18.6311 8.40834 18.8012 8.51045 19.4128C8.03486 20.0924 8.00075 21.1118 7.72873 21.9613C6.50552 25.8011 6.98133 30.5584 8.71425 33.3787C9.25785 34.228 10.5493 36.0973 12.2822 35.3836C13.8113 34.772 13.4715 32.8351 13.9132 31.1361C14.0154 30.728 13.9473 30.4564 14.1511 30.1846C14.1513 30.2185 14.1511 30.2526 14.1511 30.2526C14.627 31.2041 15.1026 32.1216 15.5443 33.073C16.5978 34.7379 18.4326 36.471 19.9617 37.6265C20.7776 38.2379 21.4231 39.2914 22.4425 39.6653V39.5632H22.3745C22.1704 39.2573 21.8648 39.1215 21.593 38.8836C20.9813 38.272 20.3015 37.5243 19.8259 36.8447C18.3989 34.9417 17.1414 32.8351 16.0201 30.6603C15.4765 29.6069 15.0007 28.4515 14.5589 27.3982C14.3549 26.9902 14.3549 26.3788 14.0151 26.175C13.5054 26.9224 12.758 27.5681 12.3841 28.4856C11.7388 29.9467 11.6706 31.7477 11.4327 33.6166C11.2969 33.6507 11.3647 33.6166 11.2967 33.6846C10.2095 33.4126 9.83557 32.2915 9.42775 31.3399C8.40834 28.9273 8.23844 25.0535 9.12206 22.2672C9.35997 21.5535 10.3794 19.3109 9.97157 18.6313C9.76777 17.9856 9.08795 17.6119 8.71425 17.1021C8.27254 16.4564 7.79673 15.641 7.49104 14.9273C6.67542 13.0245 6.26761 10.9177 5.38421 9.01461C4.9764 8.13099 4.26289 7.21369 3.68518 6.39828C3.03968 5.48077 2.32596 4.83505 1.81624 3.74763C1.64656 3.37393 1.40843 2.76232 1.68024 2.35451C1.74824 2.08271 1.88403 1.98081 2.15605 1.91281C2.59775 1.53889 3.85507 2.01471 4.29677 2.2185C5.55409 2.72799 6.6074 3.20403 7.66093 3.91753C8.13653 4.25733 8.64623 4.90305 9.25784 5.07295H9.97156C11.059 5.31065 12.2822 5.14095 13.3016 5.44665C15.1027 6.02415 16.7335 6.87388 18.1949 7.7914C22.6465 10.6117 26.3161 14.6216 28.7969 19.4128C29.2047 20.1941 29.3744 20.908 29.7483 21.7234C30.462 23.3885 31.3454 25.0876 32.0589 26.7186C32.7724 28.3155 33.452 29.9468 34.4714 31.2721C34.9814 31.9854 37.02 32.3593 37.9375 32.7332C38.6171 33.0389 39.6706 33.3109 40.2822 33.6846C41.4374 34.3979 42.5929 35.2137 43.6803 35.9952C44.2241 36.4028 45.9229 37.2526 46.025 37.932Z" fill="#00546B"/>
<path d="M11.3645 8.40283C10.7868 8.40283 10.3792 8.47105 9.97144 8.57295C9.97144 8.57295 9.97144 8.60706 9.97144 8.64096H10.0394C10.3115 9.18456 10.7868 9.55847 11.1266 10.0341C11.3987 10.5777 11.6364 11.1215 11.9084 11.6653C11.9423 11.6312 11.9762 11.5973 11.9762 11.5973C12.4522 11.2573 12.6899 10.7137 12.6899 9.89828C12.4859 9.66037 12.452 9.42246 12.2821 9.18456C12.0783 8.84453 11.6363 8.67485 11.3645 8.40283Z" fill="#00546B"/>
</g>
<defs>
<clipPath id="clip0_360_295">
<rect width="50" height="49.2188" fill="white"/>
</clipPath>
</defs>
</svg>
