<svg width="40" height="37" viewBox="0 0 40 37" fill="none" xmlns="http://www.w3.org/2000/svg">
<path d="M36.6591 20.0452H30.3783C32.1204 11.9088 25.6236 3.91204 17.2821 4.00918C9.91218 4.0091 3.91869 10.0026 3.91869 17.3725C3.76605 26.2353 12.9114 32.9037 21.2912 30.1212V32.7405C21.2912 34.5847 22.7879 36.0814 24.632 36.0814H36.6591C38.5033 36.0814 40 34.5847 40 32.7405V23.3861C40 21.5419 38.5033 20.0452 36.6591 20.0452ZM17.9503 8.05153V8.6863C17.9503 9.05379 17.6496 9.35447 17.2821 9.35447C16.9146 9.35447 16.614 9.05379 16.614 8.6863V8.05153C11.9902 8.37893 8.28853 12.0806 7.96113 16.7044H8.5959C8.96339 16.7044 9.26407 17.005 9.26407 17.3725C9.26407 17.74 8.96339 18.0407 8.5959 18.0407H7.96113C8.28853 22.6644 11.9902 26.3661 16.614 26.6935V26.0588C16.614 25.6913 16.9146 25.3906 17.2821 25.3906C17.6496 25.3906 17.9503 25.6913 17.9503 26.0588V26.6935C19.1397 26.6067 20.2622 26.2993 21.2912 25.8116V27.2815C14.5056 30.1895 6.43311 24.7973 6.59154 17.3724C6.59138 11.4793 11.3889 6.68178 17.2821 6.68178C24.1555 6.583 29.4383 13.4305 27.6321 20.0452H26.2357C26.4294 19.4038 26.5564 18.7356 26.6031 18.0407H25.9684C25.6009 18.0407 25.3002 17.74 25.3002 17.3725C25.3002 17.005 25.6009 16.7044 25.9684 16.7044H26.6031C26.2757 12.0806 22.574 8.37893 17.9503 8.05153ZM19.7611 15.8424L17.7566 17.8469C17.437 18.1772 16.8382 18.0633 16.6674 17.6331L14.6629 12.9559C14.3318 12.1518 15.5304 11.6258 15.8923 12.4347L17.5093 16.2032L18.8122 14.8936C19.4364 14.2781 20.3766 15.2183 19.7611 15.8424ZM38.6636 32.7405C38.6636 33.843 37.7616 34.745 36.6591 34.745H24.632C23.5295 34.745 22.6275 33.843 22.6275 32.7405V23.3861C22.6275 22.2836 23.5295 21.3816 24.632 21.3816H36.6591C37.7616 21.3816 38.6636 22.2836 38.6636 23.3861V32.7405Z" fill="white"/>
<path d="M32.737 24.3077L29.4763 27.5684L28.5542 26.6463C26.6402 24.8266 23.9003 27.5631 25.7212 29.4794C25.7212 29.4793 28.0598 31.8179 28.0598 31.8179C28.8093 32.5973 30.1433 32.5975 30.8928 31.8179C30.8928 31.8179 35.57 27.1407 35.57 27.1407C37.3886 25.2269 34.6545 22.4866 32.737 24.3077Z" fill="white"/>
<path d="M15.75 31.5998C15.1297 30.9847 14.1898 31.9243 14.8052 32.5447C14.8052 32.5447 15.5776 33.3171 15.5776 33.3171C-4.38415 30.5293 -2.9695 2.03282 17.2823 1.3363C26.1243 1.33634 33.3183 8.53029 33.3183 17.3725C33.3183 17.7418 33.6171 18.0406 33.9864 18.0406C34.3558 18.0406 34.6546 17.7418 34.6546 17.3725C34.6546 7.79295 26.8617 0 17.2821 0C-4.83927 0.780365 -6.12317 31.992 15.7412 34.6729L14.8052 35.6089C14.1905 36.2287 15.1293 37.1694 15.7501 36.5537C15.75 36.5537 17.7537 34.55 17.7537 34.55C18.0123 34.3019 18.0124 33.8516 17.7537 33.6035L15.75 31.5998Z" fill="white"/>
</svg>
