<svg width="50" height="50" viewBox="0 0 50 50" fill="none" xmlns="http://www.w3.org/2000/svg">
<g clip-path="url(#clip0_360_200)">
<path d="M8.85417 0H41.1458C46.0417 0 50 4.05983 50 9.0812V40.9188C50 45.9402 46.0417 50 41.1458 50H8.85417C3.95833 50 0 45.9402 0 40.9188V9.0812C0 4.05983 3.95833 0 8.85417 0Z" fill="#001E36"/>
<path d="M11.25 35.0641V13.0769C11.25 12.9273 11.3125 12.8418 11.4583 12.8418C11.8125 12.8418 12.1458 12.8418 12.625 12.8205C13.125 12.7991 13.6458 12.7991 14.2083 12.7777C14.7708 12.7564 15.375 12.7564 16.0208 12.735C16.6667 12.7136 17.2917 12.7136 17.9167 12.7136C19.625 12.7136 21.0417 12.9273 22.2083 13.376C23.25 13.7393 24.2083 14.3376 25 15.1282C25.6667 15.8119 26.1875 16.6452 26.5208 17.564C26.8333 18.4615 27 19.3803 27 20.3418C27 22.1794 26.5833 23.6965 25.75 24.8931C24.9167 26.0897 23.75 26.9871 22.3958 27.4999C20.9792 28.0341 19.4167 28.2264 17.7083 28.2264C17.2083 28.2264 16.875 28.2264 16.6667 28.2051C16.4583 28.1837 16.1667 28.1837 15.7708 28.1837V35.0427C15.7917 35.1923 15.6875 35.3205 15.5417 35.3418C15.5208 35.3418 15.5 35.3418 15.4583 35.3418H11.5C11.3333 35.3418 11.25 35.2564 11.25 35.0641ZM15.7917 16.9658V24.1452C16.0833 24.1666 16.3542 24.188 16.6042 24.188H17.7083C18.5208 24.188 19.3333 24.0598 20.1042 23.8034C20.7708 23.6111 21.3542 23.2051 21.8125 22.6709C22.25 22.1367 22.4583 21.4102 22.4583 20.47C22.4792 19.8076 22.3125 19.1452 21.9792 18.5683C21.625 18.0128 21.125 17.5854 20.5208 17.3504C19.75 17.0299 18.9167 16.9017 18.0625 16.923C17.5208 16.923 17.0417 16.923 16.6458 16.9444C16.2292 16.923 15.9375 16.9444 15.7917 16.9658Z" fill="#31A8FF"/>
<path d="M40 22.8418C39.375 22.4999 38.7083 22.2648 38 22.1153C37.2292 21.9443 36.4583 21.8375 35.6667 21.8375C35.25 21.8161 34.8125 21.8802 34.4167 21.9871C34.1458 22.0512 33.9167 22.2007 33.7708 22.4144C33.6667 22.5853 33.6042 22.799 33.6042 22.9913C33.6042 23.1836 33.6875 23.3759 33.8125 23.5469C34 23.7819 34.25 23.9742 34.5208 24.1238C35 24.3802 35.5 24.6153 36 24.8289C37.125 25.2135 38.2083 25.7477 39.2083 26.3888C39.8958 26.8375 40.4583 27.4358 40.8542 28.1623C41.1875 28.846 41.3542 29.5939 41.3333 30.3631C41.3542 31.3674 41.0625 32.3717 40.5208 33.205C39.9375 34.0597 39.125 34.7221 38.1875 35.1067C37.1667 35.5554 35.9167 35.7905 34.4167 35.7905C33.4583 35.7905 32.5208 35.705 31.5833 35.5127C30.8542 35.3845 30.125 35.1494 29.4583 34.8289C29.3125 34.7435 29.2083 34.5939 29.2292 34.423V30.705C29.2292 30.6409 29.25 30.5554 29.3125 30.5127C29.375 30.47 29.4375 30.4913 29.5 30.5341C30.3125 31.0255 31.1667 31.3674 32.0833 31.5811C32.875 31.7947 33.7083 31.9016 34.5417 31.9016C35.3333 31.9016 35.8958 31.7947 36.2708 31.6024C36.6042 31.4529 36.8333 31.0896 36.8333 30.705C36.8333 30.4059 36.6667 30.1281 36.3333 29.8503C36 29.5725 35.3125 29.252 34.2917 28.846C33.2292 28.4614 32.25 27.9486 31.3333 27.3076C30.6875 26.8375 30.1458 26.2178 29.75 25.4913C29.4167 24.8076 29.25 24.0597 29.2708 23.3118C29.2708 22.393 29.5208 21.517 29.9792 20.7264C30.5 19.8717 31.2708 19.1879 32.1667 18.7606C33.1458 18.2477 34.375 18.0127 35.8542 18.0127C36.7083 18.0127 37.5833 18.0768 38.4375 18.205C39.0625 18.2905 39.6667 18.4614 40.2292 18.6965C40.3125 18.7178 40.3958 18.8033 40.4375 18.8888C40.4583 18.9742 40.4792 19.0597 40.4792 19.1452V22.6281C40.4792 22.7135 40.4375 22.799 40.375 22.8418C40.1875 22.8845 40.0833 22.8845 40 22.8418Z" fill="#31A8FF"/>
</g>
<defs>
<clipPath id="clip0_360_200">
<rect width="50" height="50" fill="white"/>
</clipPath>
</defs>
</svg>
