<svg width="65" height="65" viewBox="0 0 65 65" fill="none" xmlns="http://www.w3.org/2000/svg">
<rect width="65" height="65" rx="32.5" fill="#E69900"/>
<path d="M49.6592 34.0452H43.3784C45.1204 25.9088 38.6236 17.912 30.2821 18.0092C22.9122 18.0091 16.9188 24.0026 16.9188 31.3725C16.7661 40.2353 25.9114 46.9037 34.2912 44.1212V46.7405C34.2912 48.5847 35.7879 50.0814 37.6321 50.0814H49.6592C51.5033 50.0814 53 48.5847 53 46.7405V37.3861C53 35.5419 51.5033 34.0452 49.6592 34.0452ZM30.9504 22.0515V22.6863C30.9504 23.0538 30.6497 23.3545 30.2822 23.3545C29.9147 23.3545 29.614 23.0538 29.614 22.6863V22.0515C24.9903 22.3789 21.2886 26.0806 20.9612 30.7044H21.596C21.9634 30.7044 22.2641 31.005 22.2641 31.3725C22.2641 31.74 21.9634 32.0407 21.596 32.0407H20.9612C21.2886 36.6644 24.9903 40.3661 29.614 40.6935V40.0588C29.614 39.6913 29.9147 39.3906 30.2822 39.3906C30.6497 39.3906 30.9504 39.6913 30.9504 40.0588V40.6935C32.1397 40.6067 33.2623 40.2993 34.2912 39.8116V41.2815C27.5057 44.1895 19.4332 38.7973 19.5916 31.3724C19.5914 25.4793 24.3889 20.6818 30.2822 20.6818C37.1556 20.583 42.4384 27.4305 40.6322 34.0452H39.2357C39.4295 33.4038 39.5564 32.7356 39.6032 32.0407H38.9684C38.6009 32.0407 38.3003 31.74 38.3003 31.3725C38.3003 31.005 38.6009 30.7044 38.9684 30.7044H39.6032C39.2758 26.0806 35.5741 22.3789 30.9504 22.0515ZM32.7611 29.8424L30.7566 31.8469C30.437 32.1772 29.8383 32.0633 29.6675 31.6331L27.663 26.9559C27.3319 26.1518 28.5304 25.6258 28.8924 26.4347L30.5094 30.2032L31.8123 28.8936C32.4365 28.2781 33.3767 29.2183 32.7611 29.8424ZM51.6637 46.7405C51.6637 47.843 50.7617 48.745 49.6592 48.745H37.6321C36.5296 48.745 35.6276 47.843 35.6276 46.7405V37.3861C35.6276 36.2836 36.5296 35.3816 37.6321 35.3816H49.6592C50.7617 35.3816 51.6637 36.2836 51.6637 37.3861V46.7405Z" fill="white"/>
<path d="M45.737 38.3077L42.4763 41.5684L41.5542 40.6463C39.6402 38.8266 36.9003 41.5631 38.7212 43.4794C38.7212 43.4793 41.0598 45.8179 41.0598 45.8179C41.8093 46.5973 43.1433 46.5975 43.8928 45.8179C43.8928 45.8179 48.57 41.1407 48.57 41.1407C50.3886 39.2269 47.6545 36.4866 45.737 38.3077Z" fill="white"/>
<path d="M28.75 45.5998C28.1297 44.9847 27.1898 45.9243 27.8052 46.5447C27.8052 46.5447 28.5776 47.3171 28.5776 47.3171C8.61585 44.5293 10.0305 16.0328 30.2823 15.3363C39.1243 15.3363 46.3183 22.5303 46.3183 31.3725C46.3183 31.7418 46.6171 32.0406 46.9864 32.0406C47.3558 32.0406 47.6546 31.7418 47.6546 31.3725C47.6546 21.793 39.8617 14 30.2821 14C8.16073 14.7804 6.87683 45.992 28.7412 48.6729L27.8052 49.6089C27.1905 50.2287 28.1293 51.1694 28.7501 50.5537C28.75 50.5537 30.7537 48.5501 30.7537 48.5501C31.0123 48.3019 31.0124 47.8516 30.7537 47.6035L28.75 45.5998Z" fill="white"/>
</svg>
