<svg width="55" height="55" viewBox="0 0 55 55" fill="none" xmlns="http://www.w3.org/2000/svg">
<mask id="path-1-inside-1_396_151" fill="white">
<path fill-rule="evenodd" clip-rule="evenodd" d="M27.5 44C36.6127 44 44 36.6127 44 27.5C44 18.3873 36.6127 11 27.5 11C18.3873 11 11 18.3873 11 27.5C11 36.6127 18.3873 44 27.5 44ZM29.7205 25.9816L37.0333 36.6666H31.2545L26.5085 29.7316L20.5368 36.6666H18.3333L25.534 28.3083L25.5348 28.3091L18.7075 18.3333H24.4863L28.7518 24.5666L34.1232 18.3333H36.3266L29.7329 25.9916L29.7205 25.9816ZM33.8737 35L23.6132 20H21.8588L32.1276 35H33.8737Z"/>
</mask>
<path fill-rule="evenodd" clip-rule="evenodd" d="M27.5 44C36.6127 44 44 36.6127 44 27.5C44 18.3873 36.6127 11 27.5 11C18.3873 11 11 18.3873 11 27.5C11 36.6127 18.3873 44 27.5 44ZM29.7205 25.9816L37.0333 36.6666H31.2545L26.5085 29.7316L20.5368 36.6666H18.3333L25.534 28.3083L25.5348 28.3091L18.7075 18.3333H24.4863L28.7518 24.5666L34.1232 18.3333H36.3266L29.7329 25.9916L29.7205 25.9816ZM33.8737 35L23.6132 20H21.8588L32.1276 35H33.8737Z" fill="#505050"/>
<path d="M37.0333 36.6666V37.6666H38.9295L37.8586 36.1018L37.0333 36.6666ZM29.7205 25.9816L30.346 25.2014L28.8952 26.5464L29.7205 25.9816ZM31.2545 36.6666L30.4293 37.2314L30.7272 37.6666H31.2545V36.6666ZM26.5085 29.7316L27.3337 29.1668L26.5992 28.0937L25.7507 29.0791L26.5085 29.7316ZM20.5368 36.6666V37.6666H20.9953L21.2945 37.3191L20.5368 36.6666ZM18.3333 36.6666L17.5757 36.0139L16.1519 37.6666H18.3333V36.6666ZM25.534 28.3083L26.2419 27.602L25.4802 26.8386L24.7763 27.6556L25.534 28.3083ZM25.5348 28.3091L24.8269 29.0154L26.36 27.7443L25.5348 28.3091ZM18.7075 18.3333V17.3333H16.8114L17.8823 18.8981L18.7075 18.3333ZM24.4863 18.3333L25.3116 17.7685L25.0137 17.3333H24.4863V18.3333ZM28.7518 24.5666L27.9265 25.1314L28.6607 26.2042L29.5093 25.2194L28.7518 24.5666ZM34.1232 18.3333V17.3333H33.6648L33.3656 17.6805L34.1232 18.3333ZM36.3266 18.3333L37.0844 18.9857L38.5071 17.3333H36.3266V18.3333ZM29.7329 25.9916L29.1074 26.7718L29.8608 27.3758L30.4908 26.6441L29.7329 25.9916ZM23.6132 20L24.4386 19.4354L24.1408 19H23.6132V20ZM33.8737 35V36H35.7693L34.6991 34.4354L33.8737 35ZM21.8588 20V19H19.9623L21.0337 20.5648L21.8588 20ZM32.1276 35L31.3024 35.5648L31.6003 36H32.1276V35ZM43 27.5C43 36.0604 36.0604 43 27.5 43V45C37.165 45 45 37.165 45 27.5H43ZM27.5 12C36.0604 12 43 18.9396 43 27.5H45C45 17.835 37.165 10 27.5 10V12ZM12 27.5C12 18.9396 18.9396 12 27.5 12V10C17.835 10 10 17.835 10 27.5H12ZM27.5 43C18.9396 43 12 36.0604 12 27.5H10C10 37.165 17.835 45 27.5 45V43ZM37.8586 36.1018L30.5457 25.4168L28.8952 26.5464L36.2081 37.2314L37.8586 36.1018ZM31.2545 37.6666H37.0333V35.6666H31.2545V37.6666ZM25.6832 30.2964L30.4293 37.2314L32.0798 36.1018L27.3337 29.1668L25.6832 30.2964ZM21.2945 37.3191L27.2662 30.3841L25.7507 29.0791L19.779 36.0141L21.2945 37.3191ZM18.3333 37.6666H20.5368V35.6666H18.3333V37.6666ZM24.7763 27.6556L17.5757 36.0139L19.091 37.3193L26.2916 28.961L24.7763 27.6556ZM26.2427 27.6028L26.2419 27.602L24.826 29.0146L24.8269 29.0154L26.2427 27.6028ZM17.8823 18.8981L24.7096 28.8739L26.36 27.7443L19.5327 17.7685L17.8823 18.8981ZM24.4863 17.3333H18.7075V19.3333H24.4863V17.3333ZM29.5771 24.0019L25.3116 17.7685L23.661 18.898L27.9265 25.1314L29.5771 24.0019ZM33.3656 17.6805L27.9942 23.9138L29.5093 25.2194L34.8807 18.9861L33.3656 17.6805ZM36.3266 17.3333H34.1232V19.3333H36.3266V17.3333ZM30.4908 26.6441L37.0844 18.9857L35.5688 17.6808L28.9751 25.3392L30.4908 26.6441ZM29.0949 26.7618L29.1074 26.7718L30.3585 25.2114L30.346 25.2014L29.0949 26.7618ZM22.7879 20.5645L33.0483 35.5645L34.6991 34.4354L24.4386 19.4354L22.7879 20.5645ZM21.8588 21H23.6132V19H21.8588V21ZM32.9528 34.4351L22.684 19.4351L21.0337 20.5648L31.3024 35.5648L32.9528 34.4351ZM33.8737 34H32.1276V36H33.8737V34Z" fill="#505050" mask="url(#path-1-inside-1_396_151)"/>
<circle cx="27.5" cy="27.5" r="25.5" stroke="#505050" stroke-width="4"/>
</svg>
